<svg xmlns="http://www.w3.org/2000/svg" baseProfile="basic" viewBox="0 0 64 64"><path d="M34.673,43.146c-0.504,0-1.008-0.189-1.396-0.568l-9.364-9.137c-0.386-0.376-0.604-0.893-0.604-1.432	s0.218-1.055,0.604-1.432l9.383-9.154c0.789-0.77,2.057-0.756,2.828,0.035c0.771,0.791,0.756,2.057-0.035,2.828l-7.915,7.723	l7.896,7.705c0.791,0.771,0.807,2.038,0.035,2.828C35.713,42.944,35.192,43.146,34.673,43.146z"/><path d="M32,10c12.15,0,22,9.85,22,22s-9.85,22-22,22	s-22-9.85-22-22S19.85,10,32,10z M32,50c9.941,0,18-8.059,18-18s-8.059-18-18-18s-18,8.059-18,18S22.059,50,32,50z"/></svg>