<svg xmlns="http://www.w3.org/2000/svg" baseProfile="basic" viewBox="0 0 64 64"><path d="M20.854,35.673c0-0.504,0.189-1.008,0.568-1.396l9.137-9.364c0.376-0.386,0.893-0.604,1.432-0.604s1.055,0.218,1.432,0.604	l9.154,9.383c0.77,0.789,0.756,2.057-0.035,2.828c-0.791,0.771-2.057,0.756-2.828-0.035l-7.723-7.915l-7.705,7.896	c-0.771,0.791-2.038,0.807-2.828,0.035C21.056,36.713,20.854,36.192,20.854,35.673z"/><path d="M54,32c0,12.15-9.85,22-22,22s-22-9.85-22-22	s9.85-22,22-22S54,19.85,54,32z M14,32c0,9.941,8.059,18,18,18s18-8.059,18-18s-8.059-18-18-18S14,22.059,14,32z"/></svg>