<svg xmlns="http://www.w3.org/2000/svg" baseProfile="basic" viewBox="0 0 64 64"><path d="M28.078,43.146c-0.52,0-1.04-0.202-1.432-0.604c-0.771-0.791-0.756-2.057,0.035-2.828l7.915-7.723L26.7,24.286	c-0.791-0.771-0.807-2.038-0.035-2.828c0.772-0.792,2.04-0.805,2.828-0.035l9.364,9.137c0.386,0.376,0.604,0.893,0.604,1.432	s-0.218,1.055-0.604,1.432l-9.383,9.154C29.086,42.957,28.582,43.146,28.078,43.146z"/><path d="M32,10c12.15,0,22,9.85,22,22s-9.85,22-22,22	s-22-9.85-22-22S19.85,10,32,10z M32,50c9.941,0,18-8.059,18-18s-8.059-18-18-18s-18,8.059-18,18S22.059,50,32,50z"/></svg>