<?xml version="1.0" encoding="UTF-8"?>
<svg id="Layer_2" data-name="Layer 2" xmlns="http://www.w3.org/2000/svg" viewBox="0 0 29.92 44.13">
  <defs>
    <style>
      .cls-1 {
        fill: #5b3526;
        stroke-width: 0px;
      }
    </style>
  </defs>
  <g id="Layer_1-2" data-name="Layer 1">
    <path class="cls-1" d="M18.53,42.66L1.46,25.6c-1.95-1.95-1.95-5.12,0-7.07L18.53,1.46c1.95-1.95,5.12-1.95,7.07,0l2.86,2.86c1.95,1.95,1.95,5.12,0,7.07l-10.67,10.67,10.67,10.67c1.95,1.95,1.95,5.12,0,7.07l-2.86,2.86c-1.95,1.95-5.12,1.95-7.07,0ZM25.63,35.56l-12.79-12.79c-.39-.39-.39-1.02,0-1.41l12.79-12.79c.39-.39.39-1.02,0-1.41l-2.86-2.86c-.39-.39-1.02-.39-1.41,0L4.29,21.36c-.39.39-.39,1.02,0,1.41l17.06,17.06c.39.39,1.02.39,1.41,0l2.86-2.86c.39-.39.39-1.02,0-1.41Z"/>
  </g>
</svg>