<?xml version="1.0" encoding="UTF-8"?>
<svg id="Layer_2" data-name="Layer 2" xmlns="http://www.w3.org/2000/svg" viewBox="0 0 29.92 44.13">
  <defs>
    <style>
      .cls-1 {
        fill: #5b3526;
        stroke-width: 0px;
      }
    </style>
  </defs>
  <g id="Layer_1-2" data-name="Layer 1">
    <path class="cls-1" d="M4.33,42.66l-2.86-2.86c-1.95-1.95-1.95-5.12,0-7.07l10.67-10.67L1.46,11.4c-1.95-1.95-1.95-5.12,0-7.07l2.86-2.86c1.95-1.95,5.12-1.95,7.07,0l17.06,17.06c1.95,1.95,1.95,5.12,0,7.07l-17.06,17.07c-1.95,1.95-5.12,1.95-7.07,0ZM4.29,36.97l2.86,2.86c.39.39,1.02.39,1.41,0l17.06-17.06c.39-.39.39-1.02,0-1.41L8.57,4.29c-.39-.39-1.02-.39-1.41,0l-2.86,2.86c-.39.39-.39,1.02,0,1.41l12.79,12.79c.39.39.39,1.02,0,1.41l-12.79,12.79c-.39.39-.39,1.02,0,1.41Z"/>
  </g>
</svg>